<svg xmlns="http://www.w3.org/2000/svg" viewBox="0 0 400 400"><defs><linearGradient id="g" x1="0" y1="0" x2="1" y2="1"><stop offset="0" stop-color="#fbf4e6"/><stop offset="1" stop-color="#d6e8ee"/></linearGradient></defs><rect width="400" height="400" fill="url(#g)"/><ellipse cx="200" cy="300" rx="150" ry="28" fill="#16313f" opacity=".08"/><ellipse cx="200" cy="230" rx="130" ry="105" fill="#2e6f85"/><ellipse cx="200" cy="250" rx="95" ry="70" fill="#f5e8cf"/><circle cx="200" cy="140" r="78" fill="#2e6f85"/><path d="M122 150 Q122 90 200 84 Q278 90 278 150 Q200 120 122 150Z" fill="#2e6f85"/><ellipse cx="200" cy="165" rx="62" ry="42" fill="#f5e8cf"/><path d="M135 95 L150 55 L170 92Z M265 95 L250 55 L230 92Z" fill="#2e6f85"/><path d="M172 150 q10 -8 20 0 M208 150 q10 -8 20 0" stroke="#16313f" stroke-width="4" fill="none" stroke-linecap="round"/><path d="M186 178 q14 10 28 0" stroke="#16313f" stroke-width="4" fill="none" stroke-linecap="round"/><circle cx="112" cy="280" r="26" fill="#f5e8cf"/><circle cx="288" cy="280" r="26" fill="#f5e8cf"/><text x="290" y="80" font-family="Arial Rounded MT Bold, Arial" font-weight="700" font-size="42" fill="#2e6f85">z</text><text x="318" y="50" font-family="Arial" font-weight="700" font-size="30" fill="#2e6f85" opacity=".7">z</text></svg>
